<?xml version="1.0" encoding="utf-8"?>
<!-- Generator: Adobe Illustrator 16.0.0, SVG Export Plug-In . SVG Version: 6.00 Build 0)  -->
<!DOCTYPE svg PUBLIC "-//W3C//DTD SVG 1.1//EN" "http://www.w3.org/Graphics/SVG/1.1/DTD/svg11.dtd">
<svg version="1.1" id="Layer_1" xmlns="http://www.w3.org/2000/svg" xmlns:xlink="http://www.w3.org/1999/xlink" x="0px" y="0px"
	 width="500px" height="500px" viewBox="0 0 500 500" enable-background="new 0 0 500 500" xml:space="preserve">
<g>
	<rect x="30.618" y="72.718" fill="#CEE8FA" width="319.195" height="75.782"/>
	<path fill="#4191CF" d="M349.816,162.228H30.618c-7.577,0-13.719-6.143-13.719-13.719V72.718C16.899,65.142,23.041,59,30.618,59
		h319.199c7.576,0,13.72,6.143,13.72,13.718v75.789C363.536,156.085,357.393,162.228,349.816,162.228z M44.336,134.789h291.761
		V86.436H44.336V134.789z"/>
	<path fill="#CEE8FA" d="M234.088,337.1H30.618v75.791h244.004C252.636,394.08,237.649,367.348,234.088,337.1z"/>
	<path fill="#4191CF" d="M469.384,309.432c-7.576,0-13.718,6.145-13.718,13.719c0,57.541-46.813,104.354-104.354,104.354
		c-26.776,0-51.223-10.146-69.716-26.787c-0.209-0.188-0.42-0.371-0.625-0.561c-1.076-0.98-2.127-1.986-3.157-3.01
		c-0.126-0.123-0.251-0.242-0.372-0.367c-1.12-1.121-2.213-2.266-3.277-3.436c-0.029-0.033-0.06-0.063-0.089-0.096
		c-8.962-9.867-16.067-21.453-20.75-34.201c-0.283-0.771-0.531-1.557-0.795-2.334c-0.254-0.744-0.521-1.48-0.757-2.23
		c-0.431-1.373-0.826-2.758-1.199-4.152c-0.047-0.164-0.099-0.328-0.142-0.492c-0.392-1.49-0.749-2.99-1.074-4.502
		c-0.018-0.074-0.035-0.146-0.053-0.221c-0.329-1.541-0.622-3.09-0.882-4.646c-0.009-0.051-0.019-0.104-0.026-0.15
		c-0.259-1.563-0.479-3.135-0.67-4.715c-0.485-4.088-0.77-8.234-0.77-12.453c0-57.539,46.813-104.352,104.354-104.352
		c26.58,0,51.897,9.998,71.291,28.148c5.53,5.176,14.211,4.889,19.39-0.642c5.18-5.532,4.891-14.213-0.642-19.39
		c-24.331-22.775-56.017-35.558-89.337-35.726c0,0-1.457,0-2.197,0H30.618c-7.577,0.001-13.719,6.144-13.719,13.72v75.79
		c0,7.576,6.142,13.717,13.719,13.717h140.188c7.576,0,13.717-6.141,13.717-13.717s-6.141-13.719-13.717-13.719H44.336v-48.353
		h226.805c-31.364,24.113-51.619,61.995-51.619,104.522c0,0.076,0.002,0.154,0.002,0.23H30.618c-7.577,0-13.719,6.145-13.719,13.719
		v75.791c0,7.576,6.142,13.717,13.719,13.717h239.143c22.452,17.736,50.784,28.332,81.551,28.332
		c72.671,0.002,131.79-59.119,131.79-131.789C483.102,315.576,476.96,309.432,469.384,309.432z M44.336,399.172v-48.354h178.115
		c0.702,3.268,1.525,6.49,2.462,9.666c0.01,0.037,0.023,0.076,0.034,0.115c0.275,0.926,0.558,1.846,0.854,2.764
		c0.089,0.287,0.184,0.57,0.276,0.854c0.216,0.656,0.436,1.311,0.659,1.961c0.182,0.531,0.372,1.061,0.563,1.588
		c0.139,0.389,0.278,0.775,0.424,1.162c0.284,0.768,0.576,1.533,0.874,2.297c0.051,0.129,0.101,0.256,0.152,0.387
		c3.85,9.744,8.845,18.996,14.909,27.561H44.336L44.336,399.172z"/>
	<path fill="#4191CF" d="M352.601,299.176c-2.901,0-5.253-2.352-5.253-5.254v-28.367c0-2.902,2.352-5.256,5.253-5.256
		c2.9,0,5.254,2.354,5.254,5.256v28.367C357.854,296.824,355.501,299.176,352.601,299.176z"/>
	<path fill="#CEE8FA" d="M373.613,270.412v23.51c0,0.105-0.006,0.209-0.007,0.316c9.658,6.676,15.991,17.822,15.991,30.451
		c0,20.434-16.563,36.998-36.997,36.998c-20.433,0-36.998-16.564-36.998-36.998c0-12.629,6.333-23.775,15.99-30.451
		c-0.001-0.107-0.007-0.211-0.007-0.316v-23.51c-21.753,8.426-37.178,29.549-37.178,54.277c0,32.137,26.054,58.189,58.192,58.189
		c32.138,0,58.19-26.053,58.19-58.189C410.791,299.961,395.365,278.838,373.613,270.412z"/>
	<path fill="#4191CF" d="M352.601,388.135c-34.985,0-63.445-28.463-63.445-63.445c0-13.053,3.933-25.59,11.377-36.26
		c7.269-10.42,17.354-18.344,29.155-22.918c1.617-0.625,3.438-0.414,4.867,0.564c1.43,0.979,2.284,2.6,2.284,4.336l0.01,23.748
		c0.024,1.75-0.825,3.402-2.268,4.396c-8.594,5.941-13.725,15.709-13.725,26.133c0,17.504,14.24,31.744,31.744,31.744
		s31.743-14.24,31.743-31.744c0-10.424-5.133-20.191-13.725-26.133c-1.441-0.994-2.292-2.646-2.266-4.396l0.007-0.242l0.001-23.506
		c0-1.736,0.854-3.357,2.284-4.336c1.43-0.979,3.25-1.191,4.866-0.566c11.804,4.576,21.888,12.5,29.156,22.92
		c7.443,10.67,11.376,23.207,11.376,36.26C416.044,359.672,387.582,388.135,352.601,388.135z M326.332,278.729
		c-16.218,9.326-26.669,26.93-26.669,45.961c0,29.189,23.747,52.936,52.938,52.936c29.189,0,52.938-23.746,52.938-52.936
		c0-19.031-10.453-36.635-26.672-45.961v12.873c10.057,7.994,15.985,20.162,15.985,33.088c0,23.299-18.955,42.25-42.251,42.25
		c-23.299,0-42.252-18.951-42.252-42.25c0-12.926,5.926-25.096,15.983-33.088V278.729L326.332,278.729z"/>
</g>
</svg>
